<svg xmlns="http://www.w3.org/2000/svg" xmlns:xlink="http://www.w3.org/1999/xlink" width="72" height="73" viewBox="0 0 72 73">
  <metadata><?xpacket begin="﻿" id="W5M0MpCehiHzreSzNTczkc9d"?>
<x:xmpmeta xmlns:x="adobe:ns:meta/" x:xmptk="Adobe XMP Core 5.6-c138 79.159824, 2016/09/14-01:09:01        ">
   <rdf:RDF xmlns:rdf="http://www.w3.org/1999/02/22-rdf-syntax-ns#">
      <rdf:Description rdf:about=""/>
   </rdf:RDF>
</x:xmpmeta>
                                                                                                    
                                                                                                    
                                                                                                    
                                                                                                    
                                                                                                    
                                                                                                    
                                                                                                    
                                                                                                    
                                                                                                    
                                                                                                    
                                                                                                    
                                                                                                    
                                                                                                    
                                                                                                    
                                                                                                    
                                                                                                    
                                                                                                    
                                                                                                    
                                                                                                    
                                                                                                    
                           
<?xpacket end="w"?></metadata>
<defs>
    <style>
      .cls-1 {
        fill: #fff;
        fill-rule: evenodd;
        filter: url(#filter);
      }
    </style>
    <filter id="filter" x="0" y="-0.031" width="71.594" height="73" filterUnits="userSpaceOnUse">
      <feFlood result="flood" flood-color="#fff"/>
      <feComposite result="composite" operator="in" in2="SourceGraphic"/>
      <feBlend result="blend" in2="SourceGraphic"/>
    </filter>
  </defs>
  <path id="Forma_1" data-name="Forma 1" class="cls-1" d="M19.141,19.867a24.2,24.2,0,0,1,29.716-3.514c-3.157,3.124-6.8,6.773-6.8,6.773-2.548,3.056.314,4.819,1.769,4.774l17.029-.005c0.9,0,1.634.005,1.634,0.005h4.946a1.641,1.641,0,0,0,1.636-1.637V2.86c0.105-2.141-2.249-4.216-4.676-1.828,0,0-4.02,3.913-6.793,6.661A36.205,36.205,0,0,0,.037,38.506H12.152A24.047,24.047,0,0,1,19.141,19.867Zm40.3,14.57a24.123,24.123,0,0,1-36.7,22.153c3.155-3.124,6.8-6.774,6.8-6.774,2.549-3.055-.314-4.818-1.769-4.771l-17.029.005c-0.9,0-1.633-.005-1.633-0.005H4.15A1.64,1.64,0,0,0,2.515,46.68v23.4c-0.1,2.14,2.247,4.213,4.679,1.826,0,0,4.015-3.915,6.793-6.659A36.206,36.206,0,0,0,71.555,34.44H59.439v0Z"/>
</svg>
